# Alias OBJ Model File
# Exported from SketchUp, (c) 2000-2012 Trimble Navigation Limited
# File units = meters

mtllib cipos.mtl

g Mesh1 Model

usemtl _
v 0 8 -8
vt -1 1
vn -1 0 -0
v 0 0 -0
vt 0 0
v 0 8 -0
vt 0 1
f 1/1/1 2/2/1 3/3/1

v 0 0 -8
vt -1 0
f 2/2/1 1/1/1 4/4/1

vn 1 -0 0
f 3/3/2 2/2/2 1/1/2

vn 0 0 1
v 3 8 -0
vt 0.375 1
f 2/2/3 5/5/3 3/3/3

v 3 0 -0
vt 0.375 0
f 5/5/3 2/2/3 6/6/3

vn -0 -0 -1
f 6/6/4 2/2/4 5/5/4

vn 0 -1 -0
v 3 0 -8
vt -0.375 1
vt -0.375 0
f 2/2/5 7/7/5 6/8/5

f 7/7/5 2/2/5 4/3/5

vn -0 1 0
f 4/3/6 2/2/6 7/7/6

f 4/4/2 1/1/2 2/2/2

vn 0 0 -1
f 1/3/7 7/8/7 4/2/7

v 3 8 -8
f 7/8/7 1/3/7 8/7/7

vn -0 -0 1
f 4/2/8 7/8/8 1/3/8

f 8/7/8 1/3/8 7/8/8

vn 0 1 -0
f 1/3/9 5/6/9 8/5/9

f 5/6/9 1/3/9 3/2/9

vn -0 -1 0
f 3/2/10 1/3/10 5/6/10

f 8/5/10 5/6/10 1/3/10

vn 1 0 -0
vt 1 0
vt 1 1
f 5/3/11 7/9/11 8/10/11

f 7/9/11 5/3/11 6/2/11

vn -1 -0 0
f 6/2/12 5/3/12 7/9/12

f 8/10/12 7/9/12 5/3/12

f 6/8/6 7/7/6 2/2/6

f 3/3/4 5/5/4 2/2/4

